<?xml version="1.0" encoding="UTF-8" standalone="no"?>
<!DOCTYPE svg PUBLIC "-//W3C//DTD SVG 1.1//EN" "http://www.w3.org/Graphics/SVG/1.1/DTD/svg11.dtd">
<svg width="100%" height="100%" viewBox="0 0 1084 1336" version="1.1" xmlns="http://www.w3.org/2000/svg" xmlns:xlink="http://www.w3.org/1999/xlink" xml:space="preserve" xmlns:serif="http://www.serif.com/" style="fill-rule:evenodd;clip-rule:evenodd;stroke-linejoin:round;stroke-miterlimit:2;">
    <g transform="matrix(1,0,0,1,1048.5,697.621)">
        <path d="M0,-204.676C-1.487,-224.73 -4.925,-245.752 -11.013,-265.933C-40.337,-281.74 -73.245,-286.872 -105.595,-273.185C-207.652,-234.306 -255.4,-119.454 -260.553,-12.01C-255.334,1.116 -249.642,14.026 -242.984,26.423C-232.822,45.345 -221.292,63.409 -208.942,80.917C-203.824,82.196 -198.36,81.727 -193.122,81.458C-184.044,80.993 -175.031,80.048 -166.119,78.196C-149.122,74.663 -132.38,69.944 -116.899,61.919C-87.522,46.694 -63.241,23.247 -45.751,-4.77C-9.204,-63.301 5.071,-136.292 0,-204.676" style="fill:rgb(225,225,225);fill-rule:nonzero;"/>
    </g>
    <g transform="matrix(1,0,0,1,999.526,658.248)">
        <path d="M0,-296.263C-14.307,-311.62 -32.355,-323.626 -54.077,-323.45C-75.264,-323.278 -95.007,-314.486 -112.251,-302.644C-155.295,-273.081 -190.392,-224.89 -206.254,-175.316C-217.124,-141.354 -222.738,-106.894 -226.563,-71.56C-228.179,-56.637 -228.545,-41.776 -228.346,-26.922C-223.839,-10.807 -219.172,5.228 -214.071,21.073C-213.262,23.179 -212.411,25.267 -211.577,27.363C-206.425,-80.081 -158.677,-194.932 -56.619,-233.811C-24.27,-247.499 8.639,-242.367 37.963,-226.56C30.154,-252.442 17.994,-276.946 0,-296.263" style="fill:white;fill-rule:nonzero;"/>
    </g>
    <g transform="matrix(1,0,0,1,728.03,322.633)">
        <path d="M0,-17.875C26.732,-41.637 60.764,-49.152 94.12,-44.462C92.091,-47.176 89.939,-49.811 87.58,-52.307C66.439,-74.682 36.709,-88.09 5.822,-88.586C-25.085,-89.081 -55.82,-78.035 -76.924,-54.876C-88.523,-42.145 -96.67,-26.712 -102.035,-10.395C-105.919,1.42 -106.822,15.437 -109.936,28.181C-90.662,40.154 -73.077,54.456 -57.558,71.206C-47.958,36.62 -29.367,4.966 0,-17.875" style="fill:white;fill-rule:nonzero;"/>
    </g>
    <g transform="matrix(1,0,0,1,822.15,544.97)">
        <path d="M0,-266.799C-33.356,-271.488 -67.388,-263.974 -94.12,-240.212C-123.487,-217.371 -142.078,-185.717 -151.678,-151.131C-144.934,-143.852 -138.543,-136.163 -132.635,-127.919C-105.51,-90.064 -88.94,-45.804 -75.593,-1.51C-74.972,0.554 -74.363,2.621 -73.752,4.689C-71.648,-14.071 -68.188,-32.719 -63.431,-50.658C-49.305,-103.932 -21.553,-152.978 18.543,-191.199C20.511,-193.077 22.527,-194.941 24.58,-196.784C22.376,-209.182 21.053,-221.937 16.946,-233.738C12.84,-245.545 7.453,-256.837 0,-266.799" style="fill:rgb(225,225,225);fill-rule:nonzero;"/>
    </g>
    <g transform="matrix(1,0,0,1,358.116,1131.63)">
        <path d="M0,13.596C-4.01,8.215 -7.934,2.768 -11.817,-2.709C-22.152,-5.793 -32.353,-9.312 -42.384,-13.285C-81.004,-28.57 -116.951,-49.689 -147.507,-78.031C-149.053,-79.467 -150.586,-80.937 -152.111,-82.42C-135.197,-44.25 -113.803,-8.349 -87.594,23.725C-78.363,35.022 -68.546,45.678 -58.27,55.772C-51.445,59.594 -44.516,63.241 -37.264,66.36C-11.547,77.42 15.605,84.971 43.058,90.346C54.888,92.662 66.84,94.547 78.865,96.016C50.16,72.762 23.649,45.594 0,13.596" style="fill:rgb(255,230,132);fill-rule:nonzero;"/>
    </g>
    <g transform="matrix(1,0,0,1,832.843,846.026)">
        <path d="M0,249.639C16.597,228.205 30.016,204.401 38.975,178.653C46.173,157.963 51.701,136.514 54.681,114.797C57.479,94.41 58.171,73.834 60.175,53.42C48.809,38.883 37.161,24.557 25.553,10.182C22.817,6.793 20.105,3.401 17.409,0C16.145,8.514 14.493,17.02 13.122,25.635C9.805,46.444 1.682,66.295 -7.174,85.303C-22.546,118.301 -43.585,148.932 -68.503,175.539C-47.665,201.93 -24.766,226.733 0,249.639" style="fill:rgb(214,139,29);fill-rule:nonzero;"/>
    </g>
    <g transform="matrix(1,0,0,1,764.34,1234.13)">
        <path d="M0,-212.562C-1.767,-210.677 -3.501,-208.755 -5.308,-206.91C-56.821,-154.277 -123.549,-117.634 -195.125,-100.685C-267.768,-83.49 -346.137,-83.75 -418.042,-105.208C-414.158,-99.732 -410.234,-94.285 -406.225,-88.904C-382.575,-56.906 -356.064,-29.738 -327.359,-6.484C-274.331,0 -219.828,-1.679 -167.512,-10.972C-90.199,-24.708 -12.027,-54.619 44.354,-111.074C52.967,-119.699 61.053,-128.841 68.503,-138.462C43.737,-161.369 20.838,-186.171 0,-212.562" style="fill:rgb(255,195,0);fill-rule:nonzero;"/>
    </g>
    <g transform="matrix(1,0,0,1,216.678,407.259)">
        <path d="M0,142.295C16.929,144.412 33.84,144.922 46.927,153.993C50.412,96.359 65.451,40.889 88.167,-11.698C73.021,1.548 59.308,16.479 47.292,32.502C22.115,66.078 1.883,103.333 -13.982,142.636C-9.367,142.036 -4.688,141.869 0,142.295" style="fill:rgb(255,230,132);fill-rule:nonzero;"/>
    </g>
    <g transform="matrix(1,0,0,1,217.206,812.913)">
        <path d="M0,-84.666C-20.208,-108.504 -33.957,-137.427 -43.979,-167.57C-53.759,-123.998 -59.197,-79.557 -60.865,-36.088C-61.119,-29.475 -61.244,-22.82 -61.297,-16.15C-56.297,-7.486 -51.131,1.035 -45.9,9.279C-33.81,28.336 -20.387,46.514 -4.601,62.686C2.349,69.805 9.637,76.543 17.215,82.904C2.766,27.916 -3.674,-28.422 0,-84.666" style="fill:rgb(255,230,132);fill-rule:nonzero;"/>
    </g>
    <g transform="matrix(1,0,0,1,699.242,375.043)">
        <path d="M0,471.501C16.689,453.22 31.976,433.417 44.842,412.247C51.873,400.679 57.72,388.511 64.504,376.823C67.5,371.669 67.959,365.53 69.306,359.653C70.018,356.546 70.857,353.489 71.731,350.442C62.018,330.653 53.65,310.039 47.089,288.246C36.13,251.844 28.892,214.45 17.768,178.062C17.071,175.784 16.41,173.492 15.762,171.191C3.737,133.951 -10.171,97.159 -32.735,64.851C-60.1,25.668 -99.51,-2.796 -144.574,-18.425C-150.013,-20.311 -155.502,-22.081 -161.027,-23.73C-114.073,14.14 -89.785,81.022 -78.146,140.175C-59,145.065 -40.942,153.602 -22.891,163.632C-28.291,173.083 -36.374,178.509 -45.475,182.578C-45.225,182.753 -44.967,182.91 -44.723,183.094C-35.588,189.904 -26.873,198.189 -26.328,210.121C-26.153,213.943 -30.187,216.732 -33.726,215.757C-41.149,213.707 -47.222,208.235 -54.861,207.143C-58.495,206.625 -61.908,206.195 -65.295,206.075C-57.292,263.734 -78.897,323.212 -118.09,367.628C-151.606,402.907 -198.854,416.438 -247.216,420.118C-183.542,432.466 -111.672,418.134 -59.666,379.794C-63.813,359.667 -67,339.276 -69.13,318.669C-67,339.276 -63.813,359.667 -59.666,379.794C-36.124,362.442 -16.649,340.173 -3.852,313.229C-16.649,340.173 -36.124,362.442 -59.666,379.794C-51.485,419.493 -39.479,458.136 -23.999,495.231C-15.637,487.741 -7.612,479.843 0,471.501" style="fill:rgb(214,139,29);fill-rule:nonzero;"/>
    </g>
    <g transform="matrix(1,0,0,1,452.026,512.311)">
        <path d="M0,282.85C-26.206,284.842 -52.737,283.952 -77.591,282.039C-52.737,283.952 -26.206,284.842 0,282.85C-23.885,278.217 -46.616,269.838 -66.711,257.559C-46.616,269.838 -23.885,278.217 0,282.85C48.361,279.17 95.609,265.639 129.126,230.36C168.318,185.944 189.924,126.466 181.921,68.807C180.651,68.762 179.382,68.751 178.106,68.809C180.16,84.805 175.81,102.737 170.84,116.765C162.945,139.034 149.914,159.39 132.858,175.796C97.148,210.147 49.692,228.803 0.696,233.147C-50.087,237.649 -104.255,229.698 -146.537,199.481C-165.492,185.938 -182.37,170.122 -196.634,151.691C-206.884,138.444 -216.594,125.437 -223.29,110.778C-226.021,112.135 -228.713,113.583 -231.268,115.293C-235.935,118.415 -241.417,120.645 -245.553,124.481C-248.567,127.278 -251.441,129.358 -255.041,131.302C-259.445,133.68 -264.096,130.642 -264.475,125.89C-265.375,114.574 -255.774,101.34 -247.379,94.41C-237.003,85.849 -225.315,77.15 -211.422,76.446C-197.454,75.743 -194.229,94.432 -204.698,101.274C-206.076,102.174 -207.501,102.99 -208.942,103.776C-199.508,112.525 -191.191,122.395 -181.902,132.134C-167.587,147.143 -152.733,162.457 -135.408,174.024C-97.23,199.516 -52.184,208.12 -6.744,204.362C35.137,200.895 78.738,186.834 109.667,157.28C124.978,142.649 137.031,125.467 146.131,106.347C151.661,94.729 155.019,81.942 159.477,69.755C148.049,64.839 145.772,44.745 161.139,40.553C174.51,36.903 190.027,37.041 201.741,45.31C210.842,41.241 218.925,35.814 224.325,26.364C206.273,16.333 188.216,7.797 169.07,2.907C169.362,4.383 169.649,5.857 169.926,7.324C169.649,5.857 169.362,4.383 169.07,2.907C162.257,1.167 155.306,-0.122 148.166,-0.836C155.306,-0.122 162.257,1.167 169.07,2.907C157.431,-56.246 133.143,-123.128 86.188,-160.999C36.353,-175.88 -16.668,-180.531 -66.812,-163.789C-96.563,-153.855 -123.618,-137.357 -147.181,-116.75C-169.896,-64.163 -184.936,-8.693 -188.421,48.941C-184.686,51.528 -181.247,54.777 -178.229,59.003C-181.247,54.777 -184.686,51.528 -188.421,48.941C-188.731,54.094 -188.985,59.258 -189.108,64.443C-188.985,59.258 -188.731,54.094 -188.421,48.941C-201.508,39.871 -218.419,39.36 -235.348,37.243C-240.036,36.817 -244.715,36.984 -249.33,37.584C-261.767,68.395 -271.491,100.472 -278.798,133.032C-268.776,163.175 -255.027,192.098 -234.819,215.936C-233.531,196.231 -231.048,176.538 -227.187,156.921C-231.048,176.538 -233.531,196.231 -234.819,215.936C-226.954,225.211 -218.144,233.745 -208.148,241.241C-218.144,233.745 -226.954,225.211 -234.819,215.936C-238.493,272.18 -232.054,328.518 -217.604,383.506C-192.121,404.905 -163.205,421.862 -131.599,433.094C-46.372,463.381 50.593,456.432 132.144,417.834C165.216,402.182 196.065,382.289 223.217,357.963C207.736,320.868 195.73,282.225 187.55,242.526C135.544,280.866 63.674,295.198 0,282.85" style="fill:rgb(255,195,0);fill-rule:nonzero;"/>
    </g>
    <g transform="matrix(1,0,0,1,1002.75,660.268)">
        <path d="M0,32.583C-17.49,60.6 -41.771,84.047 -71.148,99.272C-86.629,107.297 -103.371,112.016 -120.368,115.549C-129.28,117.401 -138.293,118.346 -147.371,118.811C-152.609,119.081 -158.073,119.549 -163.191,118.27C-175.541,100.762 -187.071,82.698 -197.233,63.776C-204.953,49.397 -211.418,34.354 -217.296,19.053C-222.396,3.208 -227.063,-12.827 -231.57,-28.942C-231.77,-43.796 -231.403,-58.657 -229.788,-73.58C-225.963,-108.914 -220.349,-143.375 -209.479,-177.336C-193.616,-226.911 -158.52,-275.101 -115.476,-304.665C-98.231,-316.506 -78.488,-325.298 -57.302,-325.471C-35.58,-325.646 -17.531,-313.64 -3.225,-298.283C28.797,-263.905 42.359,-213.097 45.751,-167.323C50.822,-98.938 36.547,-25.948 0,32.583M-109.732,239.178C-111.736,259.592 -112.429,280.168 -115.227,300.555C-118.206,322.272 -123.734,343.721 -130.933,364.411C-143.913,401.715 -166.252,434.946 -194.057,462.786C-250.437,519.241 -328.609,549.151 -405.922,562.887C-470.102,574.29 -537.573,574.237 -601.577,561.706C-629.029,556.331 -656.182,548.78 -681.898,537.719C-689.15,534.6 -696.08,530.954 -702.904,527.131C-713.181,517.038 -722.998,506.381 -732.229,495.084C-758.437,463.01 -779.832,427.11 -796.746,388.94C-795.221,390.422 -793.687,391.893 -792.142,393.329C-761.586,421.67 -725.639,442.79 -687.019,458.075C-607.192,489.676 -516.616,492.842 -433.535,473.174C-361.959,456.225 -295.231,419.583 -243.718,366.95C-216.443,339.083 -193.544,306.399 -177.081,271.061C-168.226,252.053 -160.103,232.202 -156.785,211.393C-155.414,202.778 -153.763,194.272 -152.498,185.758C-149.802,189.159 -147.09,192.551 -144.354,195.94C-132.746,210.315 -121.099,224.641 -109.732,239.178M-738.78,-220.507C-708.07,-261.46 -666.41,-295.428 -617.536,-311.746C-561.833,-330.345 -502.578,-322.55 -448.083,-303.65C-403.019,-288.021 -363.608,-259.557 -336.244,-220.374C-313.68,-188.066 -299.771,-151.274 -287.747,-114.034C-287.099,-111.733 -286.437,-109.441 -285.741,-107.164C-274.617,-70.775 -267.379,-33.381 -256.42,3.021C-249.858,24.813 -241.491,45.428 -231.777,65.217C-232.651,68.264 -233.491,71.321 -234.203,74.428C-235.55,80.305 -236.009,86.444 -239.005,91.598C-245.789,103.286 -251.636,115.454 -258.667,127.022C-271.533,148.192 -286.819,167.995 -303.509,186.276C-335.846,221.708 -375.324,249.405 -418.581,269.877C-500.132,308.475 -597.097,315.424 -682.323,285.137C-723.33,270.567 -759.832,246.387 -790.145,215.331C-805.931,199.159 -819.354,180.981 -831.444,161.924C-836.675,153.68 -841.841,145.159 -846.841,136.495C-846.788,129.825 -846.663,123.17 -846.409,116.557C-841.903,-0.84 -810.102,-125.396 -738.78,-220.507M-376.756,-348.03C-371.391,-364.347 -363.244,-379.779 -351.645,-392.511C-330.541,-415.67 -299.806,-426.716 -268.898,-426.221C-238.012,-425.725 -208.281,-412.317 -187.141,-389.942C-176.128,-378.285 -168.879,-364.06 -163.654,-349.037C-159.548,-337.235 -158.225,-324.48 -156.021,-312.082C-158.073,-310.239 -160.09,-308.375 -162.058,-306.498C-202.153,-268.276 -229.905,-219.23 -244.031,-165.956C-248.788,-148.018 -252.249,-129.37 -254.353,-110.609C-254.964,-112.677 -255.572,-114.745 -256.193,-116.808C-269.541,-161.102 -286.11,-205.362 -313.235,-243.217C-332.737,-270.436 -357.01,-292.28 -384.656,-309.454C-381.543,-322.198 -380.64,-336.215 -376.756,-348.03M-38.408,-355.393C-71.223,-361.967 -102.789,-350.535 -129.938,-332.438C-130.563,-339.422 -131.769,-346.253 -133.203,-352.511C-137.66,-371.979 -147.68,-389.556 -159.986,-405.069C-182.84,-433.876 -218.516,-451.04 -254.539,-455.428C-336.68,-465.433 -404.341,-403.629 -408.339,-322.647C-416.241,-326.576 -424.351,-330.2 -432.664,-333.488C-447.61,-339.4 -463.086,-344.196 -478.844,-347.843C-476.429,-359.754 -479.243,-374.565 -477.298,-385.109C-472.486,-411.192 -467.773,-437.184 -461.569,-462.992C-454.801,-491.133 -446.075,-518.812 -435.137,-545.612C-425.29,-569.741 -412.896,-596.513 -393.283,-614.244C-372.716,-632.834 -326.501,-638.704 -317.958,-604.712C-313.964,-588.82 -322.405,-565.802 -338.186,-559.617C-353.058,-553.786 -368.83,-559.509 -368.509,-576.909C-368.36,-584.993 -379.322,-587.579 -383.359,-580.931C-395.782,-560.462 -383.949,-540.76 -362.471,-534.205C-339.878,-527.311 -315.783,-538.538 -302.754,-557.019C-289.266,-576.149 -284.819,-605.659 -295.043,-626.963C-304.565,-646.811 -324.92,-657.611 -346.204,-659.781C-409.374,-666.222 -442.061,-607.494 -462.998,-557.727C-476.954,-524.553 -486.475,-489.534 -493.937,-454.387C-500.328,-424.273 -507.609,-389.987 -502.409,-359.312C-501.978,-356.768 -501.449,-354.431 -500.971,-352.142C-536.583,-357.749 -573.135,-357.224 -608.174,-349.193C-635.779,-342.866 -661.655,-331.192 -685.289,-315.903C-686.478,-321.747 -687.911,-327.529 -689.184,-333.155C-693.062,-350.304 -699.051,-366.958 -705.488,-383.293C-716.915,-412.294 -731.14,-440.309 -748.535,-466.196C-776.768,-508.215 -813.399,-546.528 -857.583,-571.833C-888.932,-589.787 -927.678,-601.627 -961.938,-585.071C-986.48,-573.212 -1004.07,-543.559 -1002.67,-516.526C-1001.15,-486.878 -970.146,-458.163 -939.917,-467.052C-925.417,-471.316 -903.028,-493.545 -915.198,-508.945C-916.726,-510.879 -919.541,-511.073 -921.732,-510.672C-931.948,-508.807 -935.484,-496.464 -947.187,-495.757C-957.472,-495.137 -968.756,-506.434 -969.84,-516.526C-971.863,-535.396 -954.521,-553.708 -937.248,-558.106C-932.481,-559.322 -930.852,-559.262 -923.765,-558.986C-917.942,-558.759 -913.204,-557.692 -905.923,-555.664C-890.099,-551.255 -875.591,-543.179 -861.904,-534.259C-825.345,-510.436 -796.211,-476.144 -772.372,-440.027C-757.276,-417.16 -744.552,-392.588 -734.321,-367.183C-728.725,-353.289 -724.193,-339.009 -719.457,-324.809C-716.469,-315.846 -714.471,-306.066 -711.406,-296.847C-722.308,-287.931 -732.607,-278.286 -742.197,-268.07C-820.572,-184.583 -858.587,-66.068 -873.268,45.333C-892.102,188.247 -869.658,336.026 -795.793,461.2C-747.632,542.811 -675.519,605.952 -587.652,641.368C-445.151,698.805 -267.522,681.991 -140.795,595.043C-58.946,538.887 19.111,436.067 -13.912,331.393C-23.512,300.971 -43.37,273.965 -61.863,248.446C-84.229,217.581 -108.912,188.471 -132.696,158.708C-137.56,152.622 -142.335,146.471 -147.053,140.276C-136.083,141.25 -125.03,141.354 -114.058,140.541C-90.385,138.784 -67.502,131.124 -46.672,119.965C-6.247,98.309 23.726,60.571 43.746,20.03C82.797,-59.045 92.867,-162.863 62.65,-246.543C45.799,-293.206 13.993,-344.897 -38.408,-355.393" style="fill:rgb(47,47,47);fill-rule:nonzero;"/>
    </g>
    <g transform="matrix(1,0,0,1,196.985,655.483)">
        <path d="M0,-11.871C3.6,-13.814 6.474,-15.894 9.488,-18.691C13.624,-22.527 19.106,-24.758 23.773,-27.879C26.328,-29.59 29.02,-31.038 31.751,-32.395C38.447,-17.735 48.157,-4.728 58.407,8.519C72.671,26.949 89.549,42.765 108.504,56.308C150.786,86.525 204.954,94.476 255.737,89.974C304.733,85.63 352.189,66.974 387.899,32.623C404.955,16.217 417.986,-4.139 425.881,-26.408C430.851,-40.435 435.201,-58.368 433.147,-74.363C437.812,-74.573 442.396,-74.013 447.396,-73.298C455.035,-72.206 461.107,-66.734 468.531,-64.684C472.069,-63.709 476.104,-66.498 475.929,-70.32C475.384,-82.252 466.669,-90.537 457.534,-97.347C445.738,-106.146 429.836,-106.347 416.18,-102.62C400.813,-98.428 403.09,-78.334 414.518,-73.417C410.06,-61.231 406.702,-48.444 401.172,-36.826C392.072,-17.706 380.019,-0.523 364.708,14.108C333.779,43.662 290.178,57.722 248.297,61.189C202.857,64.947 157.811,56.343 119.633,30.852C102.308,19.284 87.454,3.971 73.139,-11.039C63.85,-20.777 55.533,-30.647 46.099,-39.397C47.54,-40.183 48.965,-40.998 50.343,-41.899C60.813,-48.741 57.587,-67.43 43.619,-66.726C29.726,-66.022 18.038,-57.324 7.662,-48.763C-0.733,-41.832 -10.334,-28.599 -9.434,-17.283C-9.055,-12.531 -4.404,-9.493 0,-11.871" style="fill:rgb(47,47,47);fill-rule:nonzero;"/>
    </g>
    <g transform="matrix(0,-1,-1,0,321.396,486.995)">
        <path d="M-44.88,-44.88C-69.665,-44.88 -89.759,-24.787 -89.759,0C-89.759,24.785 -69.665,44.88 -44.88,44.88C-20.094,44.88 -0.001,24.785 -0.001,0C-0.001,-24.787 -20.094,-44.88 -44.88,-44.88" style="fill:rgb(47,47,47);fill-rule:nonzero;"/>
    </g>
    <g transform="matrix(0,-1,-1,0,305.531,503.314)">
        <path d="M-18.135,-18.133C-28.149,-18.133 -36.267,-10.014 -36.267,0.001C-36.267,10.014 -28.149,18.135 -18.135,18.135C-8.12,18.135 0,10.014 0,0.001C0,-10.014 -8.12,-18.133 -18.135,-18.133" style="fill:white;fill-rule:nonzero;"/>
    </g>
    <g transform="matrix(0,-1,-1,0,538.993,481.555)">
        <path d="M-44.88,-44.88C-69.665,-44.88 -89.759,-24.786 -89.759,0C-89.759,24.785 -69.665,44.88 -44.88,44.88C-20.094,44.88 -0.001,24.785 -0.001,0C-0.001,-24.786 -20.094,-44.88 -44.88,-44.88" style="fill:rgb(47,47,47);fill-rule:nonzero;"/>
    </g>
    <g transform="matrix(0,-1,-1,0,523.128,497.874)">
        <path d="M-18.135,-18.133C-28.149,-18.133 -36.267,-10.014 -36.267,0.001C-36.267,10.014 -28.149,18.135 -18.135,18.135C-8.12,18.135 0,10.014 0,0.001C0,-10.014 -8.12,-18.133 -18.135,-18.133" style="fill:white;fill-rule:nonzero;"/>
    </g>
</svg>
